<mxfile host="app.diagrams.net" modified="2020-09-02T07:02:52.630Z" agent="5.0 (Windows NT 10.0; Win64; x64) AppleWebKit/537.36 (KHTML, like Gecko) Chrome/81.0.4044.129 Safari/537.36" etag="1Mc0_etbAw8dZEDKnWmC" version="13.6.6" type="github">
  <diagram name="Page-1" id="5f0bae14-7c28-e335-631c-24af17079c00">
    <mxGraphModel dx="782" dy="388" grid="1" gridSize="10" guides="1" tooltips="1" connect="1" arrows="1" fold="1" page="1" pageScale="1" pageWidth="1100" pageHeight="850" background="#ffffff" math="0" shadow="0">
      <root>
        <mxCell id="0" />
        <mxCell id="1" parent="0" />
        <mxCell id="L_41h3OvpeOXnIbi4S6p-42" value="" style="group" vertex="1" connectable="0" parent="1">
          <mxGeometry x="68" y="40" width="942" height="630" as="geometry" />
        </mxCell>
        <mxCell id="L_41h3OvpeOXnIbi4S6p-8" value="" style="rounded=1;whiteSpace=wrap;html=1;fillColor=#eeeeee;strokeColor=#36393d;" vertex="1" parent="L_41h3OvpeOXnIbi4S6p-42">
          <mxGeometry y="270" width="632" height="210" as="geometry" />
        </mxCell>
        <mxCell id="L_41h3OvpeOXnIbi4S6p-12" value="" style="rounded=1;whiteSpace=wrap;html=1;fillColor=#cdeb8b;strokeColor=#36393d;" vertex="1" parent="L_41h3OvpeOXnIbi4S6p-42">
          <mxGeometry x="20" y="280" width="332" height="190" as="geometry" />
        </mxCell>
        <mxCell id="L_41h3OvpeOXnIbi4S6p-9" value="日志信息&#xa;报警信息" style="shape=module;align=left;spacingLeft=20;align=center;verticalAlign=top;fontColor=#FF3333;" vertex="1" parent="L_41h3OvpeOXnIbi4S6p-42">
          <mxGeometry x="35" y="310" width="100" height="50" as="geometry" />
        </mxCell>
        <mxCell id="L_41h3OvpeOXnIbi4S6p-10" value="注册发布" style="shape=module;align=left;spacingLeft=20;align=center;verticalAlign=top;fontColor=#FF3333;" vertex="1" parent="L_41h3OvpeOXnIbi4S6p-42">
          <mxGeometry x="242" y="310" width="100" height="50" as="geometry" />
        </mxCell>
        <mxCell id="L_41h3OvpeOXnIbi4S6p-11" value="安全API调用" style="shape=module;align=left;spacingLeft=20;align=center;verticalAlign=top;fontColor=#FF3333;" vertex="1" parent="L_41h3OvpeOXnIbi4S6p-42">
          <mxGeometry x="136" y="390" width="116" height="50" as="geometry" />
        </mxCell>
        <mxCell id="L_41h3OvpeOXnIbi4S6p-13" value="" style="rounded=1;whiteSpace=wrap;html=1;fillColor=#cce5ff;strokeColor=#36393d;" vertex="1" parent="L_41h3OvpeOXnIbi4S6p-42">
          <mxGeometry x="472" y="280" width="100" height="190" as="geometry" />
        </mxCell>
        <mxCell id="L_41h3OvpeOXnIbi4S6p-14" value="API" style="shape=module;align=left;spacingLeft=20;align=center;verticalAlign=top;" vertex="1" parent="L_41h3OvpeOXnIbi4S6p-42">
          <mxGeometry x="479" y="290" width="84" height="50" as="geometry" />
        </mxCell>
        <mxCell id="L_41h3OvpeOXnIbi4S6p-15" value="API" style="shape=module;align=left;spacingLeft=20;align=center;verticalAlign=top;" vertex="1" parent="L_41h3OvpeOXnIbi4S6p-42">
          <mxGeometry x="479" y="350" width="84" height="50" as="geometry" />
        </mxCell>
        <mxCell id="L_41h3OvpeOXnIbi4S6p-16" value="API" style="shape=module;align=left;spacingLeft=20;align=center;verticalAlign=top;" vertex="1" parent="L_41h3OvpeOXnIbi4S6p-42">
          <mxGeometry x="479" y="410" width="84" height="50" as="geometry" />
        </mxCell>
        <mxCell id="L_41h3OvpeOXnIbi4S6p-4" value="" style="rounded=1;whiteSpace=wrap;html=1;fillColor=#e3c800;strokeColor=#B09500;fontColor=#ffffff;" vertex="1" parent="L_41h3OvpeOXnIbi4S6p-42">
          <mxGeometry x="2" y="10" width="630" height="200" as="geometry" />
        </mxCell>
        <mxCell id="39150e848f15840c-5" value="加密组件&lt;br&gt;密钥管理&lt;br&gt;加密服务" style="shape=component;align=left;spacingLeft=36;rounded=0;shadow=0;comic=0;labelBackgroundColor=none;strokeWidth=1;fontFamily=Verdana;fontSize=12;html=1;fillColor=#1ba1e2;strokeColor=#006EAF;fontColor=#ffffff;" parent="L_41h3OvpeOXnIbi4S6p-42" vertex="1">
          <mxGeometry x="62" y="30" width="130" height="60" as="geometry" />
        </mxCell>
        <mxCell id="L_41h3OvpeOXnIbi4S6p-1" value="安全组件&lt;br&gt;用户管理&lt;br&gt;授权管理" style="shape=component;align=left;spacingLeft=36;rounded=0;shadow=0;comic=0;labelBackgroundColor=none;strokeWidth=1;fontFamily=Verdana;fontSize=12;html=1;fillColor=#1ba1e2;strokeColor=#006EAF;fontColor=#ffffff;" vertex="1" parent="L_41h3OvpeOXnIbi4S6p-42">
          <mxGeometry x="202" y="30" width="130" height="60" as="geometry" />
        </mxCell>
        <mxCell id="L_41h3OvpeOXnIbi4S6p-2" value="监控组件&lt;br&gt;日志管理&lt;br&gt;报警服务" style="shape=component;align=left;spacingLeft=36;rounded=0;shadow=0;comic=0;labelBackgroundColor=none;strokeWidth=1;fontFamily=Verdana;fontSize=12;html=1;fillColor=#1ba1e2;strokeColor=#006EAF;fontColor=#ffffff;" vertex="1" parent="L_41h3OvpeOXnIbi4S6p-42">
          <mxGeometry x="20" y="130" width="130" height="60" as="geometry" />
        </mxCell>
        <mxCell id="L_41h3OvpeOXnIbi4S6p-3" value="适配器组件&lt;br&gt;开放服务描述&lt;br&gt;Open API描述(http)" style="shape=component;align=left;spacingLeft=36;rounded=0;shadow=0;comic=0;labelBackgroundColor=none;strokeWidth=1;fontFamily=Verdana;fontSize=12;html=1;fillColor=#1ba1e2;strokeColor=#006EAF;fontColor=#ffffff;" vertex="1" parent="L_41h3OvpeOXnIbi4S6p-42">
          <mxGeometry x="252" y="130" width="165" height="60" as="geometry" />
        </mxCell>
        <mxCell id="L_41h3OvpeOXnIbi4S6p-6" value="&lt;span style=&quot;background-color: rgb(255 , 255 , 255)&quot;&gt;中心注册服务平台&lt;/span&gt;" style="text;html=1;strokeColor=none;fillColor=none;align=center;verticalAlign=middle;whiteSpace=wrap;rounded=0;" vertex="1" parent="L_41h3OvpeOXnIbi4S6p-42">
          <mxGeometry x="172" width="107" height="20" as="geometry" />
        </mxCell>
        <mxCell id="L_41h3OvpeOXnIbi4S6p-18" value="&lt;span style=&quot;background-color: rgb(255 , 255 , 255)&quot;&gt;Open APIs&lt;br&gt;&lt;/span&gt;" style="text;html=1;strokeColor=none;fillColor=none;align=center;verticalAlign=middle;whiteSpace=wrap;rounded=0;" vertex="1" parent="L_41h3OvpeOXnIbi4S6p-42">
          <mxGeometry x="462" y="270" width="120" height="20" as="geometry" />
        </mxCell>
        <mxCell id="L_41h3OvpeOXnIbi4S6p-19" value="" style="shape=flexArrow;endArrow=classic;startArrow=classic;html=1;fontColor=#000000;fillColor=#ffcc99;strokeColor=#36393d;" edge="1" parent="L_41h3OvpeOXnIbi4S6p-42">
          <mxGeometry width="50" height="50" relative="1" as="geometry">
            <mxPoint x="362" y="370" as="sourcePoint" />
            <mxPoint x="452" y="370" as="targetPoint" />
          </mxGeometry>
        </mxCell>
        <mxCell id="L_41h3OvpeOXnIbi4S6p-20" value="" style="shape=flexArrow;endArrow=classic;startArrow=classic;html=1;fontColor=#000000;exitX=0.5;exitY=0;exitDx=0;exitDy=0;entryX=0.5;entryY=1;entryDx=0;entryDy=0;fillColor=#eeeeee;strokeColor=#36393d;" edge="1" parent="L_41h3OvpeOXnIbi4S6p-42" source="L_41h3OvpeOXnIbi4S6p-9" target="L_41h3OvpeOXnIbi4S6p-2">
          <mxGeometry width="50" height="50" relative="1" as="geometry">
            <mxPoint x="-8" y="260" as="sourcePoint" />
            <mxPoint x="42" y="210" as="targetPoint" />
          </mxGeometry>
        </mxCell>
        <mxCell id="L_41h3OvpeOXnIbi4S6p-21" value="" style="shape=flexArrow;endArrow=classic;startArrow=classic;html=1;fontColor=#000000;fillColor=#eeeeee;strokeColor=#36393d;exitX=0.325;exitY=0.03;exitDx=0;exitDy=0;exitPerimeter=0;entryX=0.854;entryY=1.008;entryDx=0;entryDy=0;entryPerimeter=0;" edge="1" parent="L_41h3OvpeOXnIbi4S6p-42" source="L_41h3OvpeOXnIbi4S6p-11" target="39150e848f15840c-5">
          <mxGeometry width="50" height="50" relative="1" as="geometry">
            <mxPoint x="172" y="210" as="sourcePoint" />
            <mxPoint x="148" y="90" as="targetPoint" />
          </mxGeometry>
        </mxCell>
        <mxCell id="L_41h3OvpeOXnIbi4S6p-22" value="" style="shape=flexArrow;endArrow=classic;startArrow=classic;html=1;fontColor=#000000;exitX=0.5;exitY=0;exitDx=0;exitDy=0;entryX=0.5;entryY=1;entryDx=0;entryDy=0;fillColor=#eeeeee;strokeColor=#36393d;" edge="1" parent="L_41h3OvpeOXnIbi4S6p-42">
          <mxGeometry width="50" height="50" relative="1" as="geometry">
            <mxPoint x="279" y="310" as="sourcePoint" />
            <mxPoint x="281" y="190" as="targetPoint" />
          </mxGeometry>
        </mxCell>
        <mxCell id="L_41h3OvpeOXnIbi4S6p-23" value="" style="shape=flexArrow;endArrow=classic;startArrow=classic;html=1;fontColor=#000000;fillColor=#eeeeee;strokeColor=#36393d;entryX=0.25;entryY=1;entryDx=0;entryDy=0;" edge="1" parent="L_41h3OvpeOXnIbi4S6p-42" target="L_41h3OvpeOXnIbi4S6p-1">
          <mxGeometry width="50" height="50" relative="1" as="geometry">
            <mxPoint x="235" y="390" as="sourcePoint" />
            <mxPoint x="201.92000000000002" y="90" as="targetPoint" />
          </mxGeometry>
        </mxCell>
        <mxCell id="L_41h3OvpeOXnIbi4S6p-17" value="&lt;span style=&quot;background-color: rgb(255 , 255 , 255)&quot;&gt;中心接口服务平台&lt;br&gt;节点服务管理组件集&lt;br&gt;&lt;/span&gt;" style="text;html=1;strokeColor=none;fillColor=none;align=center;verticalAlign=middle;whiteSpace=wrap;rounded=0;" vertex="1" parent="L_41h3OvpeOXnIbi4S6p-42">
          <mxGeometry x="115" y="260" width="120" height="20" as="geometry" />
        </mxCell>
        <mxCell id="L_41h3OvpeOXnIbi4S6p-24" value="" style="rounded=1;whiteSpace=wrap;html=1;fontColor=#ffffff;strokeColor=#6D1F00;fillColor=#DE723E;" vertex="1" parent="L_41h3OvpeOXnIbi4S6p-42">
          <mxGeometry x="732" y="10" width="200" height="470" as="geometry" />
        </mxCell>
        <mxCell id="L_41h3OvpeOXnIbi4S6p-25" value="&lt;span style=&quot;background-color: rgb(255 , 255 , 255)&quot;&gt;外部合作服务平台&lt;/span&gt;" style="text;html=1;strokeColor=none;fillColor=none;align=center;verticalAlign=middle;whiteSpace=wrap;rounded=0;" vertex="1" parent="L_41h3OvpeOXnIbi4S6p-42">
          <mxGeometry x="772" width="107" height="20" as="geometry" />
        </mxCell>
        <mxCell id="L_41h3OvpeOXnIbi4S6p-26" value="高德地图接口" style="shape=cylinder2;whiteSpace=wrap;html=1;boundedLbl=1;backgroundOutline=1;size=15;fillColor=#0050ef;fontColor=#ffffff;strokeColor=#001DBC;" vertex="1" parent="L_41h3OvpeOXnIbi4S6p-42">
          <mxGeometry x="772" y="50" width="113" height="50" as="geometry" />
        </mxCell>
        <mxCell id="L_41h3OvpeOXnIbi4S6p-27" value="支付宝接口" style="shape=cylinder2;whiteSpace=wrap;html=1;boundedLbl=1;backgroundOutline=1;size=15;fillColor=#0050ef;fontColor=#ffffff;strokeColor=#001DBC;" vertex="1" parent="L_41h3OvpeOXnIbi4S6p-42">
          <mxGeometry x="775" y="120" width="113" height="50" as="geometry" />
        </mxCell>
        <mxCell id="L_41h3OvpeOXnIbi4S6p-28" value="微信支付接口" style="shape=cylinder2;whiteSpace=wrap;html=1;boundedLbl=1;backgroundOutline=1;size=15;fillColor=#0050ef;fontColor=#ffffff;strokeColor=#001DBC;" vertex="1" parent="L_41h3OvpeOXnIbi4S6p-42">
          <mxGeometry x="775.5" y="200" width="113" height="50" as="geometry" />
        </mxCell>
        <mxCell id="L_41h3OvpeOXnIbi4S6p-29" value="微信第三方登录接口" style="shape=cylinder2;whiteSpace=wrap;html=1;boundedLbl=1;backgroundOutline=1;size=15;fillColor=#0050ef;fontColor=#ffffff;strokeColor=#001DBC;" vertex="1" parent="L_41h3OvpeOXnIbi4S6p-42">
          <mxGeometry x="775" y="265" width="113" height="50" as="geometry" />
        </mxCell>
        <mxCell id="L_41h3OvpeOXnIbi4S6p-30" value="手机短信接口" style="shape=cylinder2;whiteSpace=wrap;html=1;boundedLbl=1;backgroundOutline=1;size=15;fillColor=#0050ef;fontColor=#ffffff;strokeColor=#001DBC;" vertex="1" parent="L_41h3OvpeOXnIbi4S6p-42">
          <mxGeometry x="775" y="340" width="113" height="50" as="geometry" />
        </mxCell>
        <mxCell id="L_41h3OvpeOXnIbi4S6p-31" value="第三方物流接口" style="shape=cylinder2;whiteSpace=wrap;html=1;boundedLbl=1;backgroundOutline=1;size=15;fillColor=#0050ef;fontColor=#ffffff;strokeColor=#001DBC;" vertex="1" parent="L_41h3OvpeOXnIbi4S6p-42">
          <mxGeometry x="775.5" y="410" width="113" height="50" as="geometry" />
        </mxCell>
        <mxCell id="L_41h3OvpeOXnIbi4S6p-32" value="&lt;font color=&quot;#ffffff&quot;&gt;91肛肠在线服务平台&lt;/font&gt;" style="shape=cylinder2;whiteSpace=wrap;html=1;boundedLbl=1;backgroundOutline=1;size=15;fillColor=#DE723E;fontColor=#000000;" vertex="1" parent="L_41h3OvpeOXnIbi4S6p-42">
          <mxGeometry x="95" y="555" width="230" height="60" as="geometry" />
        </mxCell>
        <mxCell id="L_41h3OvpeOXnIbi4S6p-33" value="" style="rounded=1;whiteSpace=wrap;html=1;fillColor=#60a917;fontColor=#ffffff;strokeColor=#2D7600;" vertex="1" parent="L_41h3OvpeOXnIbi4S6p-42">
          <mxGeometry x="382" y="540" width="560" height="90" as="geometry" />
        </mxCell>
        <mxCell id="L_41h3OvpeOXnIbi4S6p-34" value="&lt;font color=&quot;#ffffff&quot;&gt;PC端网站&lt;/font&gt;" style="shape=cylinder2;whiteSpace=wrap;html=1;boundedLbl=1;backgroundOutline=1;size=15;fillColor=#DE723E;fontColor=#000000;" vertex="1" parent="L_41h3OvpeOXnIbi4S6p-42">
          <mxGeometry x="402" y="555" width="120" height="60" as="geometry" />
        </mxCell>
        <mxCell id="L_41h3OvpeOXnIbi4S6p-35" value="&lt;font color=&quot;#ffffff&quot;&gt;总后台&lt;/font&gt;" style="shape=cylinder2;whiteSpace=wrap;html=1;boundedLbl=1;backgroundOutline=1;size=15;fillColor=#DE723E;fontColor=#000000;" vertex="1" parent="L_41h3OvpeOXnIbi4S6p-42">
          <mxGeometry x="540" y="555" width="120" height="60" as="geometry" />
        </mxCell>
        <mxCell id="L_41h3OvpeOXnIbi4S6p-36" value="&lt;font color=&quot;#ffffff&quot;&gt;微信公众号&lt;/font&gt;" style="shape=cylinder2;whiteSpace=wrap;html=1;boundedLbl=1;backgroundOutline=1;size=15;fillColor=#DE723E;fontColor=#000000;" vertex="1" parent="L_41h3OvpeOXnIbi4S6p-42">
          <mxGeometry x="678" y="555" width="120" height="60" as="geometry" />
        </mxCell>
        <mxCell id="L_41h3OvpeOXnIbi4S6p-37" value="&lt;font color=&quot;#ffffff&quot;&gt;APP(手机端)&lt;/font&gt;" style="shape=cylinder2;whiteSpace=wrap;html=1;boundedLbl=1;backgroundOutline=1;size=15;fillColor=#DE723E;fontColor=#000000;" vertex="1" parent="L_41h3OvpeOXnIbi4S6p-42">
          <mxGeometry x="812" y="555" width="120" height="60" as="geometry" />
        </mxCell>
        <mxCell id="L_41h3OvpeOXnIbi4S6p-38" value="" style="shape=flexArrow;endArrow=classic;startArrow=classic;html=1;fontColor=#000000;fillColor=#e3c800;strokeColor=#B09500;" edge="1" parent="L_41h3OvpeOXnIbi4S6p-42" source="L_41h3OvpeOXnIbi4S6p-32">
          <mxGeometry width="50" height="50" relative="1" as="geometry">
            <mxPoint x="162" y="530" as="sourcePoint" />
            <mxPoint x="212" y="480" as="targetPoint" />
          </mxGeometry>
        </mxCell>
        <mxCell id="L_41h3OvpeOXnIbi4S6p-39" value="" style="shape=flexArrow;endArrow=classic;startArrow=classic;html=1;fontColor=#000000;fillColor=#e3c800;strokeColor=#B09500;entryX=0.5;entryY=1;entryDx=0;entryDy=0;exitX=0.25;exitY=0;exitDx=0;exitDy=0;" edge="1" parent="L_41h3OvpeOXnIbi4S6p-42" source="L_41h3OvpeOXnIbi4S6p-33" target="L_41h3OvpeOXnIbi4S6p-13">
          <mxGeometry width="50" height="50" relative="1" as="geometry">
            <mxPoint x="503" y="540" as="sourcePoint" />
            <mxPoint x="503.43000000000006" y="480" as="targetPoint" />
          </mxGeometry>
        </mxCell>
        <mxCell id="L_41h3OvpeOXnIbi4S6p-40" value="" style="shape=flexArrow;endArrow=classic;startArrow=classic;html=1;fontColor=#000000;fillColor=#ffcc99;strokeColor=#36393d;entryX=0.008;entryY=0.773;entryDx=0;entryDy=0;entryPerimeter=0;" edge="1" parent="L_41h3OvpeOXnIbi4S6p-42" target="L_41h3OvpeOXnIbi4S6p-24">
          <mxGeometry width="50" height="50" relative="1" as="geometry">
            <mxPoint x="572" y="374.5" as="sourcePoint" />
            <mxPoint x="662" y="374.5" as="targetPoint" />
          </mxGeometry>
        </mxCell>
        <mxCell id="L_41h3OvpeOXnIbi4S6p-41" value="" style="shape=flexArrow;endArrow=classic;startArrow=classic;html=1;fontColor=#000000;fillColor=#ffcc99;strokeColor=#36393d;entryX=0.003;entryY=0.226;entryDx=0;entryDy=0;entryPerimeter=0;" edge="1" parent="L_41h3OvpeOXnIbi4S6p-42" target="L_41h3OvpeOXnIbi4S6p-24">
          <mxGeometry width="50" height="50" relative="1" as="geometry">
            <mxPoint x="632" y="117" as="sourcePoint" />
            <mxPoint x="731" y="120" as="targetPoint" />
          </mxGeometry>
        </mxCell>
      </root>
    </mxGraphModel>
  </diagram>
</mxfile>
